<svg width="212" height="60" viewBox="0 0 212 60" fill="none" xmlns="http://www.w3.org/2000/svg">
<path d="M45.0094 48.84H46.0094V52.04H49.5294V48.84H50.5294V56.49H49.5294V52.89H46.0094V56.49H45.0094V48.84Z" fill="black"/>
<path d="M51.7894 54.42V50.82H52.7294V54.29C52.7294 55.35 53.0494 55.8 53.7894 55.8C54.3594 55.8 54.7894 55.51 55.2894 54.8V50.8H56.2894V56.47H55.4994L55.4194 55.59C55.2093 55.8884 54.9329 56.1339 54.6119 56.3075C54.2909 56.481 53.9341 56.5777 53.5694 56.59C52.3094 56.63 51.7894 55.86 51.7894 54.42Z" fill="black"/>
<path d="M57.5494 50.82H58.3394L58.4194 51.64C58.6242 51.3617 58.8846 51.1291 59.1842 50.9569C59.4838 50.7848 59.8159 50.6768 60.1594 50.64C60.5028 50.6131 60.8449 50.7061 61.1274 50.903C61.41 51.0999 61.6157 51.3886 61.7094 51.72C61.9245 51.4223 62.1992 51.1726 62.5159 50.9866C62.8327 50.8007 63.1846 50.6827 63.5494 50.64C64.7094 50.64 65.2594 51.41 65.2594 52.86V56.45H64.2594V53.03C64.2594 51.97 63.9294 51.52 63.2594 51.52C62.9776 51.5572 62.707 51.6541 62.4656 51.8041C62.2242 51.9541 62.0175 52.1538 61.8594 52.39V56.49H60.8594V53.03C60.8594 51.97 60.5294 51.52 59.8594 51.52C59.577 51.5595 59.3058 51.6572 59.0631 51.807C58.8204 51.9568 58.6114 52.1553 58.4494 52.39V56.49H57.4994L57.5494 50.82Z" fill="black"/>
<path d="M66.1894 55.02C66.1894 53.79 67.1894 53.17 69.6294 52.91C69.6294 52.18 69.3794 51.47 68.4694 51.47C67.8639 51.4999 67.2817 51.7126 66.7994 52.08L66.4294 51.42C67.0756 50.9655 67.8399 50.7085 68.6294 50.68C69.9994 50.68 70.5694 51.6 70.5694 53.02V56.49H69.7894L69.7094 55.82C69.2077 56.3 68.5524 56.5869 67.8594 56.63C67.6398 56.6522 67.4179 56.6264 67.2093 56.5542C67.0006 56.482 66.8102 56.3652 66.6513 56.212C66.4924 56.0588 66.3687 55.8728 66.2889 55.6669C66.2092 55.4611 66.1752 55.2403 66.1894 55.02ZM69.6294 53.54C67.7494 53.76 67.1094 54.23 67.1094 54.95C67.102 55.0794 67.1235 55.2088 67.1725 55.3287C67.2214 55.4487 67.2966 55.5562 67.3924 55.6434C67.4883 55.7307 67.6024 55.7954 67.7264 55.8328C67.8505 55.8703 67.9813 55.8796 68.1094 55.86C68.6894 55.815 69.2317 55.5546 69.6294 55.13V53.54Z" fill="black"/>
<path d="M71.7694 50.82H72.5494L72.6294 51.64C72.857 51.3528 73.1415 51.1157 73.465 50.9437C73.7885 50.7716 74.1441 50.6682 74.5094 50.64C75.6894 50.64 76.2194 51.41 76.2194 52.86V56.45H75.2694V53.03C75.2694 51.97 74.9594 51.52 74.2094 51.52C73.6394 51.52 73.2094 51.81 72.6794 52.39V56.49H71.7394L71.7694 50.82Z" fill="black"/>
<path d="M79.3094 48.84H81.6794C83.2194 48.84 84.3294 49.4 84.3294 50.99C84.3294 52.58 83.2194 53.26 81.6794 53.26H80.2694V56.49H79.2694L79.3094 48.84ZM81.5394 52.47C82.7194 52.47 83.3694 51.98 83.3694 50.99C83.3694 50 82.7194 49.63 81.5394 49.63H80.2694V52.47H81.5394ZM81.4894 52.99L82.2394 52.49L84.5494 56.49H83.4594L81.4894 52.99Z" fill="black"/>
<path d="M84.6694 53.67C84.6323 53.3065 84.6686 52.9393 84.776 52.5901C84.8835 52.2409 85.0599 51.9168 85.2949 51.6371C85.5299 51.3573 85.8187 51.1275 86.1441 50.9614C86.4695 50.7953 86.825 50.6962 87.1894 50.67C88.6194 50.67 89.4294 51.67 89.4294 53.33C89.4475 53.5129 89.4475 53.6971 89.4294 53.88H85.6094C85.5916 54.1354 85.6265 54.3918 85.7118 54.6332C85.7971 54.8747 85.9312 55.096 86.1055 55.2835C86.2799 55.471 86.491 55.6207 86.7256 55.7233C86.9602 55.8259 87.2133 55.8792 87.4694 55.88C87.9677 55.8749 88.4526 55.7179 88.8594 55.43L89.1994 56.06C88.6584 56.434 88.0171 56.6361 87.3594 56.64C86.9813 56.6421 86.607 56.5644 86.2609 56.412C85.9149 56.2597 85.6049 56.0361 85.351 55.7559C85.0972 55.4756 84.9053 55.145 84.7878 54.7856C84.6704 54.4262 84.6301 54.0461 84.6694 53.67ZM88.5894 53.2C88.5894 52.07 88.0794 51.45 87.2094 51.45C86.7682 51.4806 86.3555 51.6791 86.0561 52.0045C85.7567 52.33 85.5932 52.7578 85.5994 53.2H88.5894Z" fill="black"/>
<path d="M89.6094 55.85L90.0794 55.22C90.5295 55.6367 91.1162 55.8749 91.7294 55.89C92.4694 55.89 92.8294 55.49 92.8294 55.01C92.8294 54.53 92.1694 54.16 91.5494 53.93C90.7594 53.64 89.8794 53.25 89.8794 52.29C89.8794 51.33 90.5994 50.68 91.8094 50.68C92.4454 50.6888 93.0593 50.9146 93.5494 51.32L93.0994 51.94C92.7422 51.6309 92.2913 51.4512 91.8194 51.43C91.1194 51.43 90.8194 51.81 90.8194 52.24C90.8194 52.67 91.4294 52.99 92.0594 53.24C92.8694 53.55 93.7694 53.88 93.7694 54.96C93.7694 55.88 93.0494 56.64 91.7694 56.64C90.979 56.6381 90.2145 56.3585 89.6094 55.85Z" fill="black"/>
<path d="M94.0694 53.67C94.1422 53.1733 94.3562 52.7079 94.686 52.3293C95.0157 51.9507 95.4473 51.6748 95.9293 51.5345C96.4113 51.3941 96.9236 51.3952 97.405 51.5377C97.8864 51.6801 98.3168 51.9578 98.6449 52.3379C98.973 52.7179 99.185 53.1842 99.2556 53.6812C99.3263 54.1783 99.2527 54.6852 99.0435 55.1416C98.8343 55.598 98.4984 55.9847 98.0757 56.2557C97.6531 56.5266 97.1615 56.6704 96.6594 56.67C96.2875 56.6572 95.9222 56.5676 95.5865 56.4069C95.2508 56.2461 94.952 56.0177 94.7088 55.736C94.4656 55.4543 94.2832 55.1254 94.1732 54.7698C94.0632 54.4143 94.0278 54.0398 94.0694 53.67ZM98.2794 53.67C98.2794 52.37 97.6294 51.48 96.6594 51.48C95.6894 51.48 95.0494 52.37 95.0494 53.67C95.0494 54.97 95.6994 55.84 96.6594 55.84C97.6194 55.84 98.2794 54.97 98.2794 53.67Z" fill="black"/>
<path d="M100.079 54.42V50.82H101.079V54.29C101.079 55.35 101.389 55.8 102.079 55.8C102.659 55.8 103.079 55.51 103.579 54.8V50.8H104.579V56.47H103.799L103.719 55.59C103.509 55.8884 103.233 56.1339 102.912 56.3075C102.591 56.481 102.234 56.5777 101.869 56.59C100.609 56.63 100.079 55.86 100.079 54.42Z" fill="black"/>
<path d="M105.849 50.82H106.629L106.709 51.82C106.849 51.5022 107.069 51.2263 107.348 51.0194C107.627 50.8125 107.955 50.6818 108.299 50.64C108.506 50.6279 108.713 50.6693 108.899 50.76L108.729 51.6C108.553 51.5387 108.367 51.5082 108.179 51.51C107.709 51.51 107.179 51.85 106.769 52.81V56.45H105.819L105.849 50.82Z" fill="black"/>
<path d="M108.739 53.67C108.703 53.2931 108.746 52.9129 108.864 52.5532C108.983 52.1936 109.174 51.8624 109.427 51.5805C109.68 51.2987 109.988 51.0722 110.333 50.9155C110.677 50.7588 111.051 50.6752 111.429 50.67C112.043 50.6676 112.633 50.9085 113.069 51.34L112.589 51.97C112.299 51.6645 111.901 51.485 111.479 51.47C110.479 51.47 109.719 52.36 109.719 53.66C109.719 54.96 110.419 55.83 111.449 55.83C111.945 55.8102 112.415 55.6071 112.769 55.26L113.179 55.9C112.687 56.3577 112.042 56.6146 111.369 56.62C110.996 56.6196 110.628 56.5404 110.287 56.3876C109.947 56.2349 109.643 56.012 109.394 55.7335C109.146 55.455 108.959 55.1273 108.847 54.7717C108.734 54.4161 108.697 54.0407 108.739 53.67Z" fill="black"/>
<path d="M113.179 53.67C113.142 53.3065 113.179 52.9393 113.286 52.5901C113.393 52.2409 113.57 51.9168 113.805 51.6371C114.04 51.3573 114.329 51.1275 114.654 50.9614C114.98 50.7953 115.335 50.6962 115.699 50.67C117.119 50.67 117.929 51.67 117.929 53.33C117.942 53.5131 117.942 53.6969 117.929 53.88H114.109C114.093 54.136 114.129 54.3925 114.216 54.634C114.302 54.8755 114.437 55.0967 114.612 55.284C114.787 55.4713 114.999 55.6209 115.234 55.7234C115.469 55.8259 115.723 55.8792 115.979 55.88C116.477 55.8718 116.961 55.7151 117.369 55.43L117.709 56.06C117.164 56.4337 116.52 56.6357 115.859 56.64C115.482 56.6407 115.109 56.5619 114.764 56.409C114.419 56.256 114.11 56.0322 113.858 55.7521C113.605 55.472 113.414 55.1419 113.297 54.7832C113.18 54.4245 113.14 54.0452 113.179 53.67ZM117.089 53.2C117.089 52.07 116.589 51.45 115.709 51.45C115.27 51.4831 114.86 51.6826 114.562 52.0078C114.265 52.333 114.103 52.7594 114.109 53.2H117.089Z" fill="black"/>
<path d="M120.549 48.84H121.709L123.159 52.93C123.339 53.45 123.519 53.99 123.699 54.52C123.889 53.99 124.039 53.45 124.229 52.93L125.659 48.84H126.819V56.49H126.009V52.28C126.009 51.61 126.089 50.69 126.139 50.01H126.009L125.409 51.76L123.979 55.76H123.349L121.919 51.76L121.319 50.01H121.269C121.319 50.69 121.389 51.61 121.389 52.28V56.49H120.519L120.549 48.84Z" fill="black"/>
<path d="M127.919 55.02C127.919 53.79 128.969 53.17 131.359 52.91C131.359 52.18 131.119 51.47 130.199 51.47C129.594 51.4999 129.012 51.7126 128.529 52.08L128.159 51.42C128.806 50.9671 129.57 50.7102 130.359 50.68C131.729 50.68 132.359 51.6 132.359 53.02V56.49H131.569L131.489 55.82C130.988 56.3 130.332 56.5869 129.639 56.63C129.416 56.6602 129.188 56.6403 128.974 56.5717C128.759 56.5031 128.562 56.3875 128.397 56.2334C128.232 56.0793 128.104 55.8904 128.022 55.6805C127.939 55.4707 127.904 55.245 127.919 55.02ZM131.359 53.54C129.479 53.76 128.849 54.23 128.849 54.95C128.84 55.0799 128.86 55.2101 128.909 55.331C128.957 55.4519 129.032 55.5603 129.128 55.6479C129.225 55.7355 129.34 55.8001 129.464 55.8369C129.589 55.8736 129.721 55.8815 129.849 55.86C130.426 55.8144 130.965 55.5539 131.359 55.13V53.54Z" fill="black"/>
<path d="M133.499 50.82H134.279L134.359 51.64C134.588 51.3537 134.872 51.1173 135.196 50.9453C135.519 50.7733 135.874 50.6694 136.239 50.64C137.419 50.64 137.949 51.41 137.949 52.86V56.45H137.009V53.03C137.009 51.97 136.699 51.52 135.959 51.52C135.657 51.5457 135.363 51.6368 135.099 51.787C134.835 51.9372 134.606 52.1429 134.429 52.39V56.49H133.479L133.499 50.82Z" fill="black"/>
<path d="M138.879 55.02C138.879 53.79 139.879 53.17 142.319 52.91C142.319 52.18 142.079 51.47 141.159 51.47C140.555 51.5042 139.974 51.7164 139.489 52.08L139.119 51.42C139.766 50.9671 140.53 50.7102 141.319 50.68C142.689 50.68 143.269 51.6 143.269 53.02V56.49H142.479L142.399 55.82C141.899 56.3014 141.243 56.5886 140.549 56.63C140.33 56.6522 140.108 56.6264 139.899 56.5542C139.691 56.482 139.5 56.3652 139.341 56.212C139.182 56.0588 139.059 55.8728 138.979 55.6669C138.899 55.4611 138.865 55.2403 138.879 55.02ZM142.319 53.54C140.439 53.76 139.809 54.23 139.809 54.95C139.8 55.0799 139.82 55.2101 139.869 55.331C139.917 55.4519 139.992 55.5603 140.088 55.6479C140.185 55.7355 140.3 55.8001 140.424 55.8369C140.549 55.8736 140.681 55.8815 140.809 55.86C141.386 55.8144 141.925 55.5539 142.319 55.13V53.54Z" fill="black"/>
<path d="M144.009 57.58C144.028 57.3151 144.113 57.0592 144.257 56.8357C144.4 56.6121 144.597 56.4279 144.829 56.3C144.671 56.2006 144.542 56.0615 144.454 55.8966C144.366 55.7317 144.323 55.5467 144.329 55.36C144.351 55.1586 144.417 54.9644 144.522 54.7915C144.628 54.6186 144.77 54.4712 144.939 54.36C144.61 54.0932 144.374 53.7289 144.266 53.3194C144.157 52.91 144.181 52.4766 144.335 52.0817C144.488 51.6869 144.763 51.351 145.12 51.1224C145.477 50.8939 145.897 50.7845 146.319 50.81C146.589 50.8076 146.857 50.8551 147.109 50.95H149.109V51.69H147.959C148.11 51.8449 148.228 52.028 148.307 52.2289C148.386 52.4297 148.424 52.6442 148.419 52.86C148.429 53.1253 148.384 53.3897 148.287 53.6368C148.19 53.8839 148.043 54.1083 147.855 54.296C147.668 54.4837 147.443 54.6307 147.196 54.7277C146.949 54.8248 146.685 54.8698 146.419 54.86C146.128 54.8553 145.842 54.787 145.579 54.66C145.472 54.736 145.385 54.8364 145.324 54.9528C145.263 55.0693 145.231 55.1986 145.229 55.33C145.229 55.69 145.459 55.95 146.229 55.95H147.319C148.619 55.95 149.269 56.36 149.269 57.3C149.269 58.24 148.169 59.3 146.439 59.3C145.009 59.13 144.009 58.56 144.009 57.58ZM148.229 57.29C148.229 56.76 147.829 56.58 147.099 56.58H146.099C145.854 56.581 145.609 56.5542 145.369 56.5C145.204 56.5996 145.065 56.7383 144.966 56.9039C144.867 57.0696 144.809 57.2571 144.799 57.45C144.799 58.06 145.409 58.45 146.429 58.45C147.449 58.45 148.259 57.88 148.259 57.29H148.229ZM147.509 52.7C147.531 52.5308 147.517 52.3588 147.467 52.1956C147.418 52.0324 147.334 51.8816 147.221 51.7534C147.108 51.6252 146.97 51.5225 146.814 51.4522C146.659 51.3818 146.49 51.3454 146.319 51.3454C146.149 51.3454 145.98 51.3818 145.825 51.4522C145.669 51.5225 145.531 51.6252 145.418 51.7534C145.305 51.8816 145.221 52.0324 145.172 52.1956C145.122 52.3588 145.107 52.5308 145.129 52.7C145.107 52.8692 145.122 53.0412 145.172 53.2044C145.221 53.3676 145.305 53.5184 145.418 53.6466C145.531 53.7748 145.669 53.8775 145.825 53.9478C145.98 54.0182 146.149 54.0546 146.319 54.0546C146.49 54.0546 146.659 54.0182 146.814 53.9478C146.97 53.8775 147.108 53.7748 147.221 53.6466C147.334 53.5184 147.418 53.3676 147.467 53.2044C147.517 53.0412 147.531 52.8692 147.509 52.7Z" fill="black"/>
<path d="M149.119 53.67C149.081 53.3071 149.116 52.9401 149.222 52.5909C149.328 52.2417 149.504 51.9175 149.738 51.6376C149.972 51.3577 150.26 51.1278 150.585 50.9615C150.91 50.7953 151.265 50.6961 151.629 50.67C153.059 50.67 153.869 51.67 153.869 53.33C153.871 53.5145 153.854 53.6988 153.819 53.88H150.009C149.993 54.1351 150.029 54.3909 150.115 54.6317C150.201 54.8724 150.335 55.0932 150.509 55.2804C150.683 55.4676 150.893 55.6173 151.127 55.7204C151.361 55.8235 151.614 55.8778 151.869 55.88C152.371 55.8731 152.858 55.7164 153.269 55.43L153.609 56.06C153.064 56.4337 152.42 56.6357 151.759 56.64C151.386 56.6351 151.017 56.5523 150.677 56.3969C150.337 56.2414 150.033 56.0168 149.784 55.7374C149.536 55.4579 149.348 55.1297 149.234 54.7738C149.119 54.4178 149.08 54.0419 149.119 53.67ZM153.029 53.2C153.029 52.07 152.529 51.45 151.649 51.45C151.203 51.4732 150.783 51.6684 150.477 51.9947C150.171 52.3209 150.004 52.7529 150.009 53.2H153.029Z" fill="black"/>
<path d="M154.669 50.82H155.459L155.539 51.64C155.744 51.3617 156.005 51.1291 156.304 50.9569C156.604 50.7848 156.936 50.6768 157.279 50.64C157.623 50.6131 157.965 50.7061 158.247 50.903C158.53 51.0999 158.736 51.3886 158.829 51.72C159.045 51.4223 159.319 51.1726 159.636 50.9866C159.953 50.8007 160.305 50.6827 160.669 50.64C161.819 50.64 162.379 51.41 162.379 52.86V56.45H161.379V53.03C161.379 51.97 161.049 51.52 160.379 51.52C160.096 51.5559 159.823 51.6521 159.58 51.8021C159.337 51.9522 159.129 52.1527 158.969 52.39V56.49H158.029V53.03C158.029 51.97 157.699 51.52 156.979 51.52C156.698 51.5572 156.427 51.6541 156.186 51.8041C155.944 51.9541 155.738 52.1538 155.579 52.39V56.49H154.579L154.669 50.82Z" fill="black"/>
<path d="M163.239 53.67C163.201 53.3071 163.236 52.9401 163.342 52.5909C163.448 52.2417 163.624 51.9175 163.858 51.6376C164.092 51.3577 164.38 51.1278 164.705 50.9615C165.03 50.7953 165.385 50.6961 165.749 50.67C167.179 50.67 167.989 51.67 167.989 53.33C168.008 53.5129 168.008 53.6971 167.989 53.88H164.219C164.203 54.1351 164.239 54.3909 164.325 54.6317C164.411 54.8724 164.545 55.0932 164.719 55.2804C164.893 55.4676 165.103 55.6173 165.337 55.7204C165.571 55.8235 165.824 55.8778 166.079 55.88C166.581 55.8731 167.068 55.7164 167.479 55.43L167.819 56.06C167.274 56.4337 166.63 56.6357 165.969 56.64C165.588 56.6478 165.209 56.5743 164.858 56.4244C164.507 56.2746 164.192 56.0519 163.934 55.771C163.676 55.4901 163.481 55.1575 163.361 54.7952C163.241 54.433 163.2 54.0494 163.239 53.67ZM167.149 53.2C167.149 52.07 166.649 51.45 165.769 51.45C165.328 51.4806 164.916 51.6791 164.616 52.0045C164.317 52.33 164.153 52.7578 164.159 53.2H167.149Z" fill="black"/>
<path d="M168.789 50.82H169.579L169.659 51.64C169.887 51.3528 170.171 51.1157 170.495 50.9437C170.818 50.7716 171.174 50.6682 171.539 50.64C172.719 50.64 173.249 51.41 173.249 52.86V56.45H172.249V53.03C172.249 51.97 171.929 51.52 171.189 51.52C170.887 51.5457 170.593 51.6368 170.329 51.787C170.065 51.9372 169.836 52.1429 169.659 52.39V56.49H168.709L168.789 50.82Z" fill="black"/>
<path d="M174.689 54.74V51.61H173.849V50.88L174.729 50.82L174.839 49.23H175.629V50.82H177.149V51.61H175.629V54.76C175.629 55.45 175.859 55.85 176.499 55.85C176.72 55.8406 176.937 55.7897 177.139 55.7L177.319 56.42C176.999 56.5421 176.662 56.613 176.319 56.63C175.089 56.63 174.689 55.87 174.689 54.74Z" fill="black"/>
<path d="M179.109 55.5L179.679 54.83C179.944 55.1269 180.265 55.3682 180.624 55.5399C180.983 55.7116 181.372 55.8102 181.769 55.83C182.769 55.83 183.349 55.33 183.349 54.58C183.349 53.83 182.799 53.58 182.089 53.24L181.009 52.7C180.479 52.5873 180.015 52.2685 179.72 51.8137C179.424 51.3589 179.322 50.8054 179.434 50.275C179.547 49.7446 179.866 49.2806 180.321 48.9853C180.775 48.6899 181.329 48.5873 181.859 48.7C182.28 48.7063 182.694 48.7982 183.077 48.9702C183.461 49.1421 183.805 49.3904 184.089 49.7L183.579 50.32C183.355 50.0922 183.087 49.9113 182.792 49.7877C182.496 49.6641 182.179 49.6003 181.859 49.6C181.019 49.6 180.449 50.04 180.449 50.72C180.449 51.4 181.109 51.72 181.709 51.99L182.779 52.46C183.22 52.5806 183.61 52.8405 183.892 53.201C184.173 53.5614 184.33 54.003 184.339 54.46C184.324 54.7761 184.243 55.0855 184.103 55.369C183.962 55.6525 183.765 55.904 183.523 56.1076C183.28 56.3113 182.999 56.4628 182.695 56.5527C182.392 56.6426 182.073 56.6689 181.759 56.63C181.264 56.6355 180.772 56.5378 180.316 56.3433C179.86 56.1488 179.449 55.8616 179.109 55.5Z" fill="black"/>
<path d="M184.589 58.82L184.769 58.06C184.909 58.1048 185.053 58.1316 185.199 58.14C185.829 58.14 186.199 57.63 186.459 56.92L186.589 56.51L184.339 50.82H185.339L186.479 53.96C186.659 54.46 186.839 55.04 187.029 55.56C187.189 55.04 187.349 54.46 187.499 53.96L188.499 50.82H189.429L187.319 56.96C186.919 58.09 186.319 58.96 185.219 58.96C185.003 58.9528 184.789 58.9053 184.589 58.82Z" fill="black"/>
<path d="M189.329 55.85L189.799 55.22C190.251 55.6351 190.837 55.8731 191.449 55.89C192.189 55.89 192.549 55.49 192.549 55.01C192.549 54.53 191.889 54.16 191.269 53.93C190.489 53.64 189.599 53.25 189.599 52.29C189.599 51.33 190.319 50.68 191.539 50.68C192.175 50.6919 192.788 50.9174 193.279 51.32L192.819 51.94C192.466 51.6309 192.018 51.4511 191.549 51.43C190.839 51.43 190.549 51.81 190.549 52.24C190.549 52.67 191.159 52.99 191.799 53.24C192.609 53.55 193.509 53.88 193.509 54.96C193.509 55.88 192.779 56.64 191.459 56.64C190.68 56.6295 189.927 56.3505 189.329 55.85Z" fill="black"/>
<path d="M194.139 54.74V51.61H193.309V50.88L194.189 50.82L194.299 49.23H195.089V50.82H196.609V51.61H195.089V54.76C195.089 55.45 195.309 55.85 195.959 55.85C196.177 55.8406 196.391 55.7897 196.589 55.7L196.779 56.42C196.459 56.5412 196.122 56.612 195.779 56.63C194.549 56.63 194.139 55.87 194.139 54.74Z" fill="black"/>
<path d="M196.719 53.67C196.682 53.3065 196.719 52.9393 196.826 52.5901C196.934 52.2409 197.11 51.9168 197.345 51.6371C197.58 51.3573 197.869 51.1275 198.194 50.9614C198.52 50.7953 198.875 50.6962 199.239 50.67C200.669 50.67 201.469 51.67 201.469 53.33C201.482 53.5131 201.482 53.6969 201.469 53.88H197.699C197.682 54.1354 197.716 54.3918 197.802 54.6332C197.887 54.8747 198.021 55.096 198.196 55.2835C198.37 55.471 198.581 55.6207 198.816 55.7233C199.05 55.8259 199.303 55.8792 199.559 55.88C200.057 55.873 200.542 55.7162 200.949 55.43L201.289 56.06C200.744 56.4337 200.1 56.6357 199.439 56.64C199.059 56.6463 198.681 56.5718 198.332 56.4213C197.982 56.2709 197.668 56.0479 197.411 55.7672C197.154 55.4864 196.959 55.1543 196.84 54.7928C196.721 54.4313 196.68 54.0486 196.719 53.67ZM200.629 53.2C200.629 52.07 200.129 51.45 199.249 51.45C198.81 51.4831 198.4 51.6826 198.102 52.0078C197.805 52.333 197.643 52.7594 197.649 53.2H200.629Z" fill="black"/>
<path d="M202.279 50.82H203.059L203.139 51.64C203.345 51.3626 203.606 51.1306 203.905 50.9585C204.205 50.7865 204.536 50.678 204.879 50.64C205.223 50.6131 205.565 50.7061 205.847 50.903C206.13 51.0999 206.336 51.3886 206.429 51.72C206.646 51.4211 206.922 51.1707 207.24 50.9847C207.559 50.7988 207.913 50.6814 208.279 50.64C209.429 50.64 209.979 51.41 209.979 52.86V56.45H209.029V53.03C209.029 51.97 208.699 51.52 208.029 51.52C207.748 51.5572 207.477 51.6541 207.236 51.8041C206.994 51.9541 206.788 52.1538 206.629 52.39V56.49H205.629V53.03C205.629 51.97 205.299 51.52 204.629 51.52C204.347 51.5595 204.076 51.6572 203.833 51.807C203.59 51.9568 203.381 52.1553 203.219 52.39V56.49H202.279V50.82Z" fill="black"/>
<path d="M50.0094 43.88C48.2782 42.9586 46.8792 41.5177 46.0094 39.76C45.0388 37.7304 44.5657 35.4988 44.6294 33.25V12.59H50.7294V33.4C50.6368 34.9802 51.1723 36.5329 52.2194 37.72C53.4029 38.7139 54.8989 39.2587 56.4444 39.2587C57.9899 39.2587 59.4859 38.7139 60.6694 37.72C61.1939 37.1357 61.5966 36.4527 61.8542 35.711C62.1117 34.9692 62.2189 34.1836 62.1694 33.4V12.59H68.2694V33.25C68.3362 35.5002 67.8594 37.7333 66.8794 39.76C66.0041 41.5138 64.6066 42.9532 62.8794 43.88C60.8754 44.8087 58.6931 45.2897 56.4844 45.2897C54.2757 45.2897 52.0934 44.8087 50.0894 43.88H50.0094Z" fill="black"/>
<path d="M80.6194 37.32C80.603 37.5583 80.6373 37.7974 80.72 38.0215C80.8028 38.2455 80.9321 38.4495 81.0994 38.62C81.284 38.7834 81.4994 38.9083 81.733 38.9873C81.9665 39.0663 82.2135 39.0978 82.4594 39.08H83.4594V44.96H80.3394C79.5454 45.0075 78.7502 44.8888 78.0046 44.6116C77.2591 44.3344 76.5795 43.9047 76.0094 43.35C74.9242 42.1075 74.3742 40.4863 74.4794 38.84V12.59H80.5794L80.6194 37.32Z" fill="black"/>
<path d="M85.9394 21.85H97.2494V27.06H85.9394V21.85ZM89.7294 43.52C88.7011 42.2284 88.1976 40.5965 88.3194 38.95V15.13H94.4194V37.43C94.3907 37.8904 94.506 38.3482 94.7494 38.74C94.8654 38.8923 95.0177 39.0133 95.1923 39.0919C95.3669 39.1705 95.5584 39.2042 95.7494 39.19H97.2694V45.07H94.1994C93.3872 45.1416 92.569 45.0404 91.7986 44.7733C91.0282 44.5062 90.323 44.079 89.7294 43.52Z" fill="black"/>
<path d="M102.259 12.59H108.359V18.69H102.259V12.59ZM102.259 21.85H108.359V44.96H102.259V21.85Z" fill="black"/>
<path d="M114.009 21.85H120.109V44.96H114.009V21.85ZM127.479 31.62C127.554 30.4878 127.196 29.3695 126.479 28.49C126.114 28.1143 125.673 27.8216 125.184 27.6318C124.696 27.442 124.172 27.3595 123.649 27.39C123.172 27.3607 122.695 27.4299 122.246 27.5933C121.796 27.7568 121.386 28.0109 121.039 28.34C120.715 28.6993 120.466 29.1196 120.307 29.5764C120.147 30.0331 120.08 30.5171 120.109 31L119.649 25.88C120.212 24.5964 121.093 23.4777 122.209 22.63C123.258 21.8796 124.52 21.4868 125.809 21.51C127.301 21.4344 128.777 21.8435 130.017 22.6762C131.258 23.5089 132.195 24.7205 132.689 26.13C133.338 27.8719 133.647 29.7219 133.599 31.58V44.96H127.499L127.479 31.62ZM140.949 31.62C141.015 30.4889 140.658 29.3737 139.949 28.49C139.601 28.1151 139.173 27.822 138.698 27.6319C138.222 27.4417 137.711 27.3591 137.199 27.39C136.699 27.358 136.198 27.4364 135.731 27.6196C135.265 27.8028 134.844 28.0863 134.499 28.45C133.818 29.2955 133.479 30.3662 133.549 31.45L132.469 26.13C133.102 24.7705 134.082 23.6014 135.309 22.74C136.447 21.9476 137.803 21.5283 139.189 21.54C140.695 21.4983 142.179 21.9093 143.449 22.72C144.68 23.5724 145.622 24.7792 146.149 26.18C146.801 27.9212 147.114 29.7712 147.069 31.63V44.96H141.009L140.949 31.62Z" fill="black"/>
<path d="M153.809 43.52C152.609 42.34 152.009 40.5433 152.009 38.13C151.936 37.1796 152.077 36.2247 152.423 35.3365C152.77 34.4484 153.312 33.6497 154.009 33C155.376 31.86 157.436 31.29 160.189 31.29H166.009L166.319 35.94H160.239C159.507 35.885 158.778 36.0788 158.169 36.49C157.933 36.6936 157.747 36.9499 157.627 37.2381C157.508 37.5264 157.457 37.8386 157.479 38.15C157.461 38.4822 157.532 38.8134 157.685 39.1089C157.838 39.4044 158.067 39.6534 158.349 39.83C159.157 40.2446 160.063 40.4313 160.969 40.37C162.209 40.4412 163.449 40.2504 164.609 39.81C164.965 39.6828 165.272 39.4476 165.487 39.1374C165.702 38.8272 165.815 38.4575 165.809 38.08L166.269 41.44C166.181 42.2684 165.772 43.0293 165.129 43.56C164.385 44.1686 163.519 44.6117 162.589 44.86C161.541 45.1524 160.458 45.2971 159.369 45.29C156.883 45.29 155.029 44.7 153.809 43.52ZM165.809 30.31C165.836 29.8434 165.753 29.3771 165.567 28.9483C165.381 28.5194 165.098 28.1399 164.739 27.84C163.869 27.2142 162.81 26.9071 161.739 26.97C160.869 26.9719 160.005 27.1137 159.179 27.39C158.368 27.6531 157.607 28.0521 156.929 28.57L153.149 24.85C154.147 23.7446 155.4 22.9001 156.799 22.39C158.398 21.7931 160.093 21.4948 161.799 21.51C163.573 21.4536 165.336 21.7953 166.959 22.51C168.329 23.1256 169.472 24.1534 170.229 25.45C171.011 26.8827 171.394 28.4988 171.339 30.13V44.96H165.799L165.809 30.31Z" fill="black"/>
<path d="M175.569 21.85H186.879V27.06H175.569V21.85ZM179.369 43.52C178.334 42.2317 177.826 40.5983 177.949 38.95V15.13H184.009V37.43C183.979 37.8919 184.098 38.3513 184.349 38.74C184.464 38.8937 184.616 39.0157 184.791 39.0944C184.966 39.1732 185.158 39.206 185.349 39.19H186.859V45.07H183.809C183.002 45.1398 182.189 45.0377 181.423 44.7706C180.658 44.5034 179.958 44.0772 179.369 43.52Z" fill="black"/>
<path d="M196.419 44.13C194.874 43.3553 193.608 42.1178 192.799 40.59C191.926 38.8556 191.496 36.9314 191.549 34.99V32.33C191.494 30.3136 191.904 28.3116 192.749 26.48C193.492 24.9148 194.705 23.621 196.219 22.78C197.918 21.8945 199.815 21.4573 201.729 21.51C203.576 21.46 205.392 21.9918 206.919 23.03C208.431 24.1329 209.574 25.6665 210.199 27.43C211.005 29.6732 211.385 32.0473 211.319 34.43V35.95H195.519V31.78H205.759L205.689 31.24C205.614 30.0949 205.173 29.0044 204.429 28.13C204.085 27.7641 203.665 27.4772 203.199 27.289C202.733 27.1009 202.231 27.0159 201.729 27.04C201.099 27.0032 200.468 27.101 199.878 27.3269C199.289 27.5527 198.754 27.9015 198.309 28.35C197.431 29.4052 196.997 30.7607 197.099 32.13V35.03C197.058 35.6963 197.154 36.3641 197.381 36.9919C197.608 37.6197 197.961 38.1943 198.419 38.68C198.922 39.1291 199.509 39.4743 200.146 39.6957C200.782 39.9171 201.456 40.0103 202.129 39.97C202.958 39.9692 203.781 39.8237 204.559 39.54C205.352 39.2543 206.089 38.8348 206.739 38.3L210.739 41.84C209.571 42.9244 208.216 43.7883 206.739 44.39C205.298 44.9789 203.757 45.2844 202.199 45.29C200.207 45.3744 198.225 44.9765 196.419 44.13Z" fill="black"/>
<path d="M24.0094 12.31C23.3974 12.8397 22.6873 13.244 21.9194 13.5V20.86C21.9037 21.3118 21.7098 21.7391 21.38 22.0483C21.0502 22.3575 20.6113 22.5235 20.1594 22.51H19.7694C19.5453 22.518 19.3218 22.4816 19.1119 22.4029C18.9019 22.3242 18.7096 22.2047 18.546 22.0513C18.3824 21.8979 18.2508 21.7137 18.1587 21.5093C18.0666 21.3048 18.0159 21.0841 18.0094 20.86V13.55C17.1619 13.2804 16.3814 12.8339 15.7194 12.24C12.9019 12.9312 10.3241 14.3721 8.25941 16.41V39.13C8.25941 45.5 14.1194 50.64 21.0094 50.03C23.86 49.7957 26.5202 48.5049 28.4682 46.4107C30.4163 44.3165 31.5116 41.57 31.5394 38.71V16.71C29.4833 14.5768 26.8772 13.054 24.0094 12.31Z" fill="#0F5298"/>
<path d="M19.8994 0C18.6121 0.0075919 17.3567 0.401404 16.2958 1.13046C15.2348 1.85951 14.4171 2.89025 13.9485 4.08924C13.4799 5.28823 13.3819 6.60027 13.6674 7.85555C13.9528 9.11082 14.6084 10.2515 15.5494 11.13C16.2352 11.7569 17.0465 12.2307 17.9294 12.52C18.5754 12.7288 19.2505 12.8334 19.9294 12.83C20.6349 12.8387 21.3371 12.734 22.0094 12.52C23.4431 12.0195 24.6537 11.0284 25.4276 9.72186C26.2015 8.41532 26.4888 6.87735 26.2387 5.37954C25.9887 3.88174 25.2174 2.52047 24.0611 1.53614C22.9049 0.551803 21.4379 0.00772888 19.9194 0H19.8994ZM19.8994 10.62C19.0727 10.62 18.2645 10.3748 17.5771 9.91554C16.8897 9.45624 16.354 8.80341 16.0376 8.03962C15.7212 7.27582 15.6384 6.43536 15.7997 5.62452C15.961 4.81368 16.3591 4.06888 16.9437 3.48429C17.5283 2.89971 18.2731 2.5016 19.0839 2.34032C19.8948 2.17903 20.7352 2.26181 21.499 2.57819C22.2628 2.89456 22.9156 3.43032 23.3749 4.11772C23.8343 4.80512 24.0794 5.61328 24.0794 6.44C24.0794 7.54861 23.639 8.6118 22.8551 9.39571C22.0712 10.1796 21.008 10.62 19.8994 10.62Z" fill="url(#paint0_linear_1_25)"/>
<path d="M38.2094 16.8H32.9494V18.8C34.8856 21.3963 35.9056 24.5617 35.8494 27.8V40.48C35.8046 44.2516 34.2693 47.8524 31.5788 50.496C28.8884 53.1396 25.2613 54.6114 21.4894 54.59H18.2594C14.4876 54.6114 10.8604 53.1396 8.16997 50.496C5.4795 47.8524 3.94425 44.2516 3.8994 40.48V27.77C3.90505 24.5365 4.93035 21.3871 6.8294 18.77V16.85H1.59941C1.18607 16.8549 0.790436 17.0185 0.494444 17.307C0.198452 17.5956 0.0247816 17.9869 0.00940522 18.4V43.65C-0.0965023 46.6398 0.694026 49.5929 2.27941 52.13C3.94879 54.5638 6.32109 56.4303 9.0794 57.48C12.5184 58.7904 16.1805 59.4154 19.8594 59.32C23.5448 59.4145 27.2132 58.7895 30.6594 57.48C33.4275 56.4333 35.8102 54.5668 37.4894 52.13C39.1078 49.6077 39.9269 46.6556 39.8394 43.66V18.39C39.8381 18.1782 39.7948 17.9687 39.7119 17.7738C39.6291 17.5788 39.5083 17.4023 39.3567 17.2544C39.205 17.1065 39.0255 16.9901 38.8286 16.9121C38.6317 16.8341 38.4212 16.796 38.2094 16.8Z" fill="url(#paint1_linear_1_25)"/>
<defs>
<linearGradient id="paint0_linear_1_25" x1="-0.625093" y1="29.7792" x2="211.372" y2="29.7792" gradientUnits="userSpaceOnUse">
<stop stop-color="#29AAE1"/>
<stop offset="0.04" stop-color="#2BA2DB"/>
<stop offset="0.11" stop-color="#2D9AD6"/>
<stop offset="0.26" stop-color="#2E98D4"/>
<stop offset="0.47" stop-color="#3285C6"/>
<stop offset="0.78" stop-color="#366CB5"/>
<stop offset="0.96" stop-color="#3955A5"/>
</linearGradient>
<linearGradient id="paint1_linear_1_25" x1="-0.0405948" y1="38.06" x2="39.8394" y2="38.06" gradientUnits="userSpaceOnUse">
<stop stop-color="#29AAE1"/>
<stop offset="0.04" stop-color="#2BA2DB"/>
<stop offset="0.11" stop-color="#2D9AD6"/>
<stop offset="0.26" stop-color="#2E98D4"/>
<stop offset="0.38" stop-color="#3285C6"/>
<stop offset="0.56" stop-color="#366CB5"/>
<stop offset="0.96" stop-color="#3955A5"/>
</linearGradient>
</defs>
</svg>
